Genre:Comedy | Drama
Language: English
IMDB:http://www.imdb.com/title/tt1301990/
Source:PAL.DVDR-TV2LAX9
Subtitles:Romana


Format : MPEG-4
Format profile : Base Media
Codec ID : isom
File size : 799 MiB
Duration : 1h 29mn
Overall bit rate : 1 249 Kbps
Movie name : Every.Day.2010.DvDRip.x264.Feel-Free


Video
Format settings, CABAC : Yes
Format settings, ReFrames : 4 frames
Codec ID : avc1
Codec ID/Info : Advanced Video Coding
Duration : 1h 29mn
Bit rate mode : Variable
Bit rate : 856 Kbps
Width : 720 pixels
Height : 400 pixels
Display aspect ratio : 16:9
Frame rate mode : Constant
Frame rate : 25.000 fps
Color space : YUV
Chroma subsampling : 4:2:0
Bit depth : 8 bits
Scan type : Progressive
Bits/(Pixel*Frame) : 0.119
Stream size : 550 MiB (69%)
Writing library : x264

Audio
ID : 2
Format : AAC
Format/Info : Advanced Audio Codec
Format version : Version 4
Format profile : LC
Codec ID : 40
Duration : 1h 29mn
Bit rate mode : Variable
Bit rate : 384 Kbps
Channel(s) : 6 channels
Channel positions : Front: L C R, Side: L R, LFE
Sampling rate : 48.0 KHz
Stream size : 245 MiB (31%)


Plot:
A comedy about a New York City couple (Schreiber and Hunt) in romantic crisis.